<svg version="1.1" viewBox="0.0 0.0 1536.0 1536.0" fill="none" stroke="none" stroke-linecap="square" stroke-miterlimit="10" xmlns:xlink="http://www.w3.org/1999/xlink" xmlns="http://www.w3.org/2000/svg"><clipPath id="p.0"><path d="m0 0l1536.0 0l0 1536.0l-1536.0 0l0 -1536.0z" clip-rule="nonzero"/></clipPath><g clip-path="url(#p.0)"><path fill="#000000" fill-opacity="0.0" d="m0 0l1536.0 0l0 1536.0l-1536.0 0z" fill-rule="evenodd"/><defs><linearGradient id="p.1" gradientUnits="userSpaceOnUse" gradientTransform="matrix(37.63312219950585 0.0 0.0 37.63312219950585 0.0 0.0)" spreadMethod="pad" x1="1.5909772589061466" y1="39.49695847582144" x2="39.22409945841199" y2="39.49695847582144"><stop offset="0.0" stop-color="#ffffff"/><stop offset="0.46" stop-color="#ffffff"/><stop offset="0.7" stop-color="#d9d9d9"/><stop offset="0.83" stop-color="#b9b9b9"/><stop offset="0.88" stop-color="#999999"/><stop offset="1.0" stop-color="#434343"/></linearGradient></defs><path fill="url(#p.1)" d="m59.87344 375.4152l0 0c0 -179.93922 145.86955 -325.80878 325.80875 -325.80878l764.63446 0l0 0c86.40979 0 169.28064 34.32618 230.38159 95.427185c61.100952 61.100983 95.427124 143.97171 95.427124 230.38159l0 785.1699c0 179.93921 -145.8695 325.80872 -325.80872 325.80872l-764.63446 0c-179.9392 0 -325.80875 -145.8695 -325.80875 -325.80872z" fill-rule="evenodd"/><path stroke="#000000" stroke-width="24.0" stroke-linejoin="round" stroke-linecap="butt" d="m59.87344 375.4152l0 0c0 -179.93922 145.86955 -325.80878 325.80875 -325.80878l764.63446 0l0 0c86.40979 0 169.28064 34.32618 230.38159 95.427185c61.100952 61.100983 95.427124 143.97171 95.427124 230.38159l0 785.1699c0 179.93921 -145.8695 325.80872 -325.80872 325.80872l-764.63446 0c-179.9392 0 -325.80875 -145.8695 -325.80875 -325.80872z" fill-rule="evenodd"/><path fill="#029243" d="m1322.8031 309.41208l0 0c0 52.69754 -44.270874 95.41733 -98.881836 95.41733l0 0c-26.225098 0 -51.3761 -10.052887 -69.920044 -27.947083c-18.543945 -17.894226 -28.961792 -42.164 -28.961792 -67.470245l0 0c0 -52.69754 44.270874 -95.41733 98.881836 -95.41733l0 0c54.610962 0 98.881836 42.719788 98.881836 95.41733z" fill-rule="evenodd"/><path stroke="#000000" stroke-width="24.0" stroke-linejoin="round" stroke-linecap="butt" d="m1322.8031 309.41208l0 0c0 52.69754 -44.270874 95.41733 -98.881836 95.41733l0 0c-26.225098 0 -51.3761 -10.052887 -69.920044 -27.947083c-18.543945 -17.894226 -28.961792 -42.164 -28.961792 -67.470245l0 0c0 -52.69754 44.270874 -95.41733 98.881836 -95.41733l0 0c54.610962 0 98.881836 42.719788 98.881836 95.41733z" fill-rule="evenodd"/><path fill="#f8931f" d="m372.47244 780.0l0 0c0 -218.43512 177.08371 -395.5118 395.52756 -395.5118l0 0c104.90045 0 205.5044 41.66986 279.68018 115.84271c74.1759 74.17288 115.84741 174.77286 115.84741 279.6691l0 0c0 218.43512 -177.08374 395.51184 -395.5276 395.51184l0 0c-218.44385 0 -395.52756 -177.07672 -395.52756 -395.51184z" fill-rule="evenodd"/><path stroke="#000000" stroke-width="24.0" stroke-linejoin="round" stroke-linecap="butt" d="m372.47244 780.0l0 0c0 -218.43512 177.08371 -395.5118 395.52756 -395.5118l0 0c104.90045 0 205.5044 41.66986 279.68018 115.84271c74.1759 74.17288 115.84741 174.77286 115.84741 279.6691l0 0c0 218.43512 -177.08374 395.51184 -395.5276 395.51184l0 0c-218.44385 0 -395.52756 -177.07672 -395.52756 -395.51184z" fill-rule="evenodd"/><path fill="#434343" d="m511.19684 780.0l0 0c0 -148.18628 116.060486 -268.31497 259.22833 -268.31497l0 0c68.75165 0 134.68738 28.26883 183.30212 78.587616c48.614746 50.318848 75.92627 118.565796 75.92627 189.72736l0 0c0 148.18628 -116.060486 268.31494 -259.2284 268.31494l0 0c-143.16785 0 -259.22833 -120.12866 -259.22833 -268.31494z" fill-rule="evenodd"/><path stroke="#000000" stroke-width="24.0" stroke-linejoin="round" stroke-linecap="butt" d="m511.19684 780.0l0 0c0 -148.18628 116.060486 -268.31497 259.22833 -268.31497l0 0c68.75165 0 134.68738 28.26883 183.30212 78.587616c48.614746 50.318848 75.92627 118.565796 75.92627 189.72736l0 0c0 148.18628 -116.060486 268.31494 -259.2284 268.31494l0 0c-143.16785 0 -259.22833 -120.12866 -259.22833 -268.31494z" fill-rule="evenodd"/></g></svg>